<svg width="227" height="81" viewBox="0 0 227 81" fill="none" xmlns="http://www.w3.org/2000/svg">
<path fill-rule="evenodd" clip-rule="evenodd" d="M34.9631 5.88173L37.7069 8.47009L40.327 5.83951L57.3527 22.9065L58.6071 21.6468C59.2976 20.9533 59.862 20.1825 59.862 19.9339C59.862 19.6847 55.525 15.1313 50.2239 9.81482L40.5852 0.148926L34.9631 5.88173ZM12.4829 19.7918H14.2223C15.7514 19.7918 15.9836 19.5586 16.147 17.8588L16.3324 15.9259L40.3181 15.6041V12.06H12.4829V19.7918ZM60.4543 13.8443C60.4543 15.487 60.6189 15.6285 62.5271 15.6285H64.5999V40.0133H68.7456V12.06H60.4543V13.8443ZM0.62207 40.3398L6.33067 45.9858L8.94777 43.1881L7.75441 42.1033C7.09762 41.5067 6.56046 40.7288 6.56046 40.3749C6.56046 40.0205 10.3004 35.9684 14.8714 31.3698L23.1817 23.0094L20.4343 20.4175L0.62207 40.3398ZM39.1573 23.1147L48.3133 32.0841L50.9275 29.5267L41.7395 20.3538L39.1573 23.1147ZM27.2888 28.713H40.3181V25.1445H27.2888V28.713ZM51.5707 40.0133H55.1241V26.9288H51.5707V40.0133ZM24.9418 34.3412C20.6161 38.7144 20.5675 38.7976 21.643 39.9913C22.243 40.6574 22.975 41.2028 23.2681 41.2028C23.5619 41.2028 25.7502 39.208 28.1304 36.7707L32.4591 32.3381L31.1686 31.1206C30.4585 30.4503 29.7549 29.9025 29.6051 29.9025C29.4547 29.9025 27.3564 31.8997 24.9418 34.3412ZM72.9914 36.0404L71.7003 37.4208L74.7065 40.2572L57.8135 57.2522L60.4685 59.9185L80.1729 40.1305L77.6203 37.3958C76.2161 35.8911 74.8907 34.6606 74.6751 34.6606C74.4589 34.6606 73.7015 35.2815 72.9914 36.0404ZM52.5686 43.6473L48.5319 47.8831L51.2236 50.7605L55.6873 46.2778C59.4557 42.4934 60.0498 41.6334 59.5019 40.7556C58.2037 38.6763 56.7119 39.2984 52.5686 43.6473ZM12.4829 68.5614H20.182V66.4798C20.182 64.4974 20.0831 64.3981 18.1091 64.3981H16.0363V40.6081H12.4829V68.5614ZM25.5121 53.0979H29.0656V40.6081H25.5121V53.0979ZM31.2302 49.4276C30.6913 50.026 30.25 50.7682 30.25 51.0781C30.25 51.3873 32.1955 53.5814 34.574 55.9538L38.8973 60.267L41.7383 57.2302L37.3415 52.785C34.9234 50.34 32.7795 48.3398 32.5775 48.3398C32.3756 48.3398 31.7691 48.8293 31.2302 49.4276ZM40.3181 55.4769H53.3474V51.3136H40.3181V55.4769ZM21.8947 59.0008L20.4781 60.1754L40.3128 80.1489L45.9201 74.5178L43.3083 71.895L40.2636 74.7676L32.1476 66.6195C27.6839 62.1381 23.8692 58.3263 23.6714 58.1491C23.473 57.9712 22.6735 58.3549 21.8947 59.0008ZM64.5999 62.6139V64.3981H40.3181V68.5614H68.7456V60.8296H66.6728C64.7646 60.8296 64.5999 60.9712 64.5999 62.6139Z" fill="white"/>
<path d="M89.0667 19.6595H99.8073L112.742 38.6881L125.722 19.6595H132.806V59.1874H125.722V32.8048L112.742 51.7874L99.8073 32.8048V59.1874H92.6317V26.1862H89.0667V19.6595Z" fill="white"/>
<path d="M157.037 19.1539C159.931 19.1539 162.643 19.7208 165.172 20.8545C167.701 21.9883 169.925 23.551 171.845 25.5427V32.5291H165.401V28.9899C164.243 27.9787 162.948 27.1821 161.516 26.5999C160.084 25.987 158.591 25.6806 157.037 25.6806C155.209 25.6806 153.487 26.0483 151.872 26.7837C150.257 27.5191 148.84 28.5303 147.622 29.8172C146.403 31.0736 145.428 32.5444 144.696 34.2297C143.996 35.8843 143.645 37.6616 143.645 39.5613C143.645 41.4611 143.996 43.2537 144.696 44.939C145.428 46.6243 146.403 48.1104 147.622 49.3974C148.84 50.6537 150.257 51.6495 151.872 52.385C153.487 53.1204 155.209 53.4881 157.037 53.4881C158.956 53.4881 160.754 53.0744 162.43 52.2471C164.106 51.4197 165.568 50.3013 166.817 48.8918L171.845 53.58C169.925 55.6023 167.701 57.1957 165.172 58.3601C162.643 59.4939 159.931 60.0607 157.037 60.0607C154.233 60.0607 151.583 59.5245 149.084 58.452C146.586 57.3489 144.392 55.8628 142.503 53.9936C140.613 52.1245 139.12 49.9489 138.024 47.4669C136.927 44.985 136.378 42.3498 136.378 39.5613C136.378 36.7729 136.927 34.1531 138.024 31.7017C139.12 29.2197 140.613 27.0595 142.503 25.221C144.392 23.3518 146.586 21.881 149.084 20.8086C151.583 19.7054 154.233 19.1539 157.037 19.1539Z" fill="white"/>
<path d="M196.046 19.1539C198.941 19.1539 201.653 19.7208 204.182 20.8545C206.711 21.9883 208.935 23.551 210.855 25.5427V32.5291H204.41V28.9899C203.252 27.9787 201.957 27.1821 200.525 26.5999C199.093 25.987 197.6 25.6806 196.046 25.6806C194.218 25.6806 192.497 26.0483 190.882 26.7837C189.267 27.5191 187.85 28.5303 186.631 29.8172C185.412 31.0736 184.437 32.5444 183.706 34.2297C183.005 35.8843 182.655 37.6616 182.655 39.5613C182.655 41.4611 183.005 43.2537 183.706 44.939C184.437 46.6243 185.412 48.1104 186.631 49.3974C187.85 50.6537 189.267 51.6495 190.882 52.385C192.497 53.1204 194.218 53.4881 196.046 53.4881C197.966 53.4881 199.764 53.0744 201.439 52.2471C203.115 51.4197 204.578 50.3013 205.827 48.8918L210.855 53.58C208.935 55.6023 206.711 57.1957 204.182 58.3601C201.653 59.4939 198.941 60.0607 196.046 60.0607C193.243 60.0607 190.592 59.5245 188.094 58.452C185.595 57.3489 183.401 55.8628 181.512 53.9936C179.623 52.1245 178.13 49.9489 177.033 47.4669C175.936 44.985 175.388 42.3498 175.388 39.5613C175.388 36.7729 175.936 34.1531 177.033 31.7017C178.13 29.2197 179.623 27.0595 181.512 25.221C183.401 23.3518 185.595 21.881 188.094 20.8086C190.592 19.7054 193.243 19.1539 196.046 19.1539Z" fill="white"/>
<path d="M92.5731 61.9099C93.0644 61.9099 93.5247 62.0061 93.9539 62.1985C94.3832 62.3909 94.7607 62.6562 95.0865 62.9942V64.18H93.9927V63.5793C93.7962 63.4077 93.5764 63.2725 93.3333 63.1737C93.0903 63.0697 92.8369 63.0176 92.5731 63.0176C92.2628 63.0176 91.9706 63.0801 91.6965 63.2049C91.4224 63.3297 91.1819 63.5013 90.9751 63.7198C90.7682 63.933 90.6027 64.1826 90.4786 64.4687C90.3596 64.7495 90.3002 65.0512 90.3002 65.3736C90.3002 65.6961 90.3596 66.0003 90.4786 66.2864C90.6027 66.5724 90.7682 66.8246 90.9751 67.0431C91.1819 67.2563 91.4224 67.4254 91.6965 67.5502C91.9706 67.675 92.2628 67.7374 92.5731 67.7374C92.8989 67.7374 93.204 67.6672 93.4885 67.5268C93.7729 67.3863 94.0212 67.1965 94.2332 66.9573L95.0865 67.753C94.7607 68.0963 94.3832 68.3667 93.9539 68.5643C93.5247 68.7568 93.0644 68.853 92.5731 68.853C92.0973 68.853 91.6474 68.762 91.2233 68.5799C90.7992 68.3927 90.4269 68.1405 90.1062 67.8232C89.7856 67.506 89.5322 67.1367 89.346 66.7154C89.1598 66.2942 89.0667 65.8469 89.0667 65.3736C89.0667 64.9003 89.1598 64.4557 89.346 64.0396C89.5322 63.6183 89.7856 63.2517 90.1062 62.9396C90.4269 62.6224 90.7992 62.3727 91.2233 62.1907C91.6474 62.0035 92.0973 61.9099 92.5731 61.9099Z" fill="white"/>
<path d="M95.6878 68.6736V63.8836H96.8204V64.8665C96.9704 64.5753 97.1721 64.3257 97.4255 64.1176C97.6841 63.9096 97.9814 63.7926 98.3176 63.7666C98.3486 63.7718 98.3745 63.7744 98.3952 63.7744C98.421 63.7744 98.4443 63.7744 98.465 63.7744C98.496 63.7692 98.5296 63.7744 98.5658 63.79V64.9055C98.4055 64.9108 98.2426 64.929 98.0771 64.9602C97.9168 64.9862 97.7617 65.033 97.6117 65.1006C97.4669 65.163 97.3324 65.2462 97.2083 65.3502C97.0893 65.4542 96.9911 65.5843 96.9135 65.7403V68.6736H95.6878Z" fill="white"/>
<path d="M101.709 63.8056C102.071 63.8056 102.405 63.868 102.71 63.9928C103.015 64.1124 103.279 64.2814 103.501 64.4999C103.724 64.7183 103.897 64.9784 104.021 65.28C104.15 65.5817 104.215 65.9119 104.215 66.2708C104.215 66.3384 104.212 66.406 104.207 66.4736C104.207 66.5412 104.202 66.6062 104.192 66.6686H100.476C100.507 67.0223 100.636 67.3109 100.864 67.5346C101.091 67.7582 101.383 67.87 101.74 67.87C101.854 67.87 101.968 67.857 102.082 67.831C102.201 67.7998 102.312 67.7582 102.415 67.7062C102.519 67.649 102.612 67.5788 102.694 67.4956C102.777 67.4123 102.842 67.3161 102.888 67.2069L103.936 67.5034C103.832 67.7218 103.7 67.9116 103.54 68.0729C103.38 68.2289 103.201 68.3589 103.005 68.4629C102.813 68.5669 102.607 68.6449 102.384 68.697C102.162 68.7438 101.934 68.7672 101.702 68.7672C101.345 68.7672 101.011 68.7074 100.701 68.5877C100.391 68.4629 100.122 68.2939 99.8941 68.0807C99.6717 67.8622 99.4958 67.6022 99.3666 67.3005C99.2373 66.9989 99.1726 66.6686 99.1726 66.3098C99.1726 65.9353 99.2373 65.5947 99.3666 65.2878C99.4958 64.981 99.6743 64.7183 99.9018 64.4999C100.129 64.2763 100.396 64.1046 100.701 63.985C101.011 63.8654 101.347 63.8056 101.709 63.8056ZM102.958 65.8963C102.922 65.5427 102.79 65.2566 102.563 65.0382C102.34 64.8145 102.051 64.7027 101.694 64.7027C101.518 64.7027 101.355 64.7339 101.205 64.7963C101.06 64.8535 100.934 64.9368 100.825 65.046C100.716 65.15 100.628 65.2748 100.561 65.4204C100.499 65.5661 100.46 65.7247 100.445 65.8963H102.958Z" fill="white"/>
<path d="M104.816 67.2615C104.816 66.9807 104.879 66.7414 105.003 66.5438C105.132 66.3462 105.295 66.1876 105.491 66.0679C105.693 65.9431 105.915 65.8521 106.159 65.7949C106.407 65.7377 106.65 65.7091 106.888 65.7091C107.069 65.7091 107.265 65.7247 107.477 65.7559C107.689 65.7819 107.878 65.8313 108.044 65.9041V65.6389C108.044 65.3008 107.943 65.0616 107.741 64.9212C107.544 64.7755 107.288 64.7027 106.973 64.7027C106.678 64.7027 106.412 64.7547 106.174 64.8587C105.936 64.9576 105.698 65.085 105.46 65.241L105.072 64.4375C105.688 64.0162 106.363 63.8056 107.097 63.8056C107.418 63.8056 107.71 63.8446 107.974 63.9226C108.243 64.0006 108.473 64.1202 108.664 64.2814C108.855 64.4427 109.005 64.6481 109.114 64.8978C109.223 65.1422 109.277 65.4334 109.277 65.7715V67.2927C109.277 67.4175 109.298 67.5086 109.339 67.5658C109.391 67.6282 109.466 67.662 109.564 67.6672V68.6736C109.455 68.6944 109.357 68.71 109.269 68.7204C109.228 68.7308 109.186 68.736 109.145 68.736C109.109 68.736 109.075 68.736 109.044 68.736C108.858 68.736 108.687 68.6917 108.532 68.6033C108.377 68.5149 108.287 68.3693 108.261 68.1665L108.237 67.9168C108.02 68.1821 107.759 68.3901 107.454 68.5409C107.154 68.6917 106.833 68.7672 106.492 68.7672C106.27 68.7672 106.058 68.7334 105.856 68.6657C105.654 68.5929 105.476 68.4915 105.321 68.3615C105.166 68.2315 105.041 68.0755 104.948 67.8934C104.86 67.7062 104.816 67.4956 104.816 67.2615ZM106.089 67.5034C106.161 67.6438 106.267 67.74 106.407 67.792C106.546 67.844 106.691 67.87 106.841 67.87C107.007 67.87 107.18 67.8388 107.361 67.7764C107.542 67.7088 107.692 67.6152 107.811 67.4956C107.873 67.4383 107.93 67.3681 107.981 67.2849C108.023 67.2017 108.044 67.1367 108.044 67.0899V66.6062C107.894 66.549 107.736 66.5048 107.57 66.4736C107.405 66.4372 107.239 66.419 107.074 66.419C106.96 66.419 106.839 66.432 106.709 66.458C106.585 66.484 106.469 66.5256 106.36 66.5828C106.252 66.64 106.161 66.7154 106.089 66.8091C106.021 66.9027 105.988 67.0197 105.988 67.1601C105.988 67.2849 106.021 67.3993 106.089 67.5034Z" fill="white"/>
<path d="M110.172 63.8836H110.801V62.3077H112.042L112.034 63.8836H113.05V64.8197H112.042V67.1679C112.042 67.3187 112.081 67.4358 112.158 67.519C112.241 67.6022 112.357 67.6438 112.507 67.6438C112.637 67.6438 112.758 67.6204 112.872 67.5736C112.934 67.5476 112.988 67.5242 113.035 67.5034C113.087 67.4826 113.133 67.4644 113.175 67.4488L113.415 68.4395C113.141 68.5591 112.859 68.6527 112.569 68.7204C112.399 68.7516 112.228 68.7672 112.057 68.7672C111.67 68.7672 111.362 68.6684 111.134 68.4707C110.912 68.2731 110.801 67.9792 110.801 67.5892V64.8197H110.172V63.8836Z" fill="white"/>
<path d="M114.021 63.8368H115.247V68.6736H114.021V63.8368ZM115.247 61.9333V63.1503H114.021V61.9333H115.247Z" fill="white"/>
<path d="M115.854 63.8836H117.119L118.352 67.558L119.57 63.8836H120.734L118.957 68.6736H117.631L115.854 63.8836Z" fill="white"/>
<path d="M123.876 63.8056C124.238 63.8056 124.571 63.868 124.876 63.9928C125.181 64.1124 125.445 64.2814 125.668 64.4999C125.89 64.7183 126.063 64.9784 126.187 65.28C126.317 65.5817 126.381 65.9119 126.381 66.2708C126.381 66.3384 126.379 66.406 126.373 66.4736C126.373 66.5412 126.368 66.6062 126.358 66.6686H122.642C122.673 67.0223 122.802 67.3109 123.03 67.5346C123.258 67.7582 123.55 67.87 123.907 67.87C124.02 67.87 124.134 67.857 124.248 67.831C124.367 67.7998 124.478 67.7582 124.582 67.7062C124.685 67.649 124.778 67.5788 124.861 67.4956C124.944 67.4123 125.008 67.3161 125.055 67.2069L126.102 67.5034C125.999 67.7218 125.867 67.9116 125.706 68.0729C125.546 68.2289 125.368 68.3589 125.171 68.4629C124.98 68.5669 124.773 68.6449 124.55 68.697C124.328 68.7438 124.101 68.7672 123.868 68.7672C123.511 68.7672 123.177 68.7074 122.867 68.5877C122.557 68.4629 122.288 68.2939 122.06 68.0807C121.838 67.8622 121.662 67.6022 121.533 67.3005C121.404 66.9989 121.339 66.6686 121.339 66.3098C121.339 65.9353 121.404 65.5947 121.533 65.2878C121.662 64.981 121.841 64.7183 122.068 64.4999C122.296 64.2763 122.562 64.1046 122.867 63.985C123.177 63.8654 123.514 63.8056 123.876 63.8056ZM125.125 65.8963C125.088 65.5427 124.956 65.2566 124.729 65.0382C124.507 64.8145 124.217 64.7027 123.86 64.7027C123.684 64.7027 123.521 64.7339 123.371 64.7963C123.227 64.8535 123.1 64.9368 122.991 65.046C122.883 65.15 122.795 65.2748 122.727 65.4204C122.665 65.5661 122.627 65.7247 122.611 65.8963H125.125Z" fill="white"/>
<path d="M133.595 61.9099C134.086 61.9099 134.547 62.0061 134.976 62.1985C135.405 62.3909 135.783 62.6562 136.109 62.9942V64.18H135.015V63.5793C134.818 63.4077 134.598 63.2725 134.355 63.1737C134.112 63.0697 133.859 63.0176 133.595 63.0176C133.285 63.0176 132.993 63.0801 132.719 63.2049C132.444 63.3297 132.204 63.5013 131.997 63.7198C131.79 63.933 131.625 64.1826 131.501 64.4687C131.382 64.7495 131.322 65.0512 131.322 65.3736C131.322 65.6961 131.382 66.0003 131.501 66.2864C131.625 66.5724 131.79 66.8246 131.997 67.0431C132.204 67.2563 132.444 67.4254 132.719 67.5502C132.993 67.675 133.285 67.7374 133.595 67.7374C133.921 67.7374 134.226 67.6672 134.51 67.5268C134.795 67.3863 135.043 67.1965 135.255 66.9573L136.109 67.753C135.783 68.0963 135.405 68.3667 134.976 68.5643C134.547 68.7568 134.086 68.853 133.595 68.853C133.119 68.853 132.669 68.762 132.245 68.5799C131.821 68.3927 131.449 68.1405 131.128 67.8232C130.808 67.506 130.554 67.1367 130.368 66.7154C130.182 66.2942 130.089 65.8469 130.089 65.3736C130.089 64.9003 130.182 64.4557 130.368 64.0396C130.554 63.6183 130.808 63.2517 131.128 62.9396C131.449 62.6224 131.821 62.3727 132.245 62.1907C132.669 62.0035 133.119 61.9099 133.595 61.9099Z" fill="white"/>
<path d="M136.71 66.8793V63.8836H137.951V66.6062C137.951 66.7414 137.961 66.8767 137.982 67.0119C138.008 67.1419 138.049 67.2589 138.106 67.3629C138.168 67.467 138.251 67.5528 138.354 67.6204C138.458 67.6828 138.59 67.714 138.75 67.714C139.034 67.714 139.283 67.6334 139.495 67.4722C139.707 67.3109 139.872 67.1055 139.991 66.8559V63.8836H141.232V67.2927C141.232 67.4175 141.253 67.5086 141.294 67.5658C141.346 67.6282 141.421 67.662 141.519 67.6672V68.6736C141.457 68.684 141.4 68.6917 141.349 68.697C141.297 68.7022 141.251 68.71 141.209 68.7204C141.168 68.7256 141.129 68.7282 141.093 68.7282C141.057 68.7334 141.02 68.736 140.984 68.736C140.803 68.736 140.635 68.6891 140.48 68.5955C140.33 68.5019 140.237 68.3589 140.201 68.1665L140.177 67.7764C139.95 68.1145 139.668 68.3641 139.332 68.5253C139.001 68.6865 138.636 68.7672 138.238 68.7672C137.948 68.7672 137.705 68.7178 137.509 68.6189C137.318 68.5201 137.162 68.3849 137.043 68.2133C136.924 68.0416 136.839 67.8414 136.787 67.6126C136.736 67.3837 136.71 67.1393 136.71 66.8793Z" fill="white"/>
<path d="M143.352 61.9333V67.1289C143.352 67.3525 143.388 67.506 143.461 67.5892C143.538 67.6672 143.637 67.7062 143.756 67.7062C143.854 67.7062 143.955 67.6958 144.058 67.675C144.162 67.649 144.257 67.6126 144.345 67.5658L144.508 68.5175C144.332 68.6007 144.138 68.6631 143.926 68.7048C143.719 68.7464 143.52 68.7672 143.329 68.7672C142.951 68.7672 142.654 68.6657 142.437 68.4629C142.225 68.2601 142.119 67.9662 142.119 67.5814V61.9333H143.352Z" fill="white"/>
<path d="M145.111 63.8836H145.74V62.3077H146.981L146.973 63.8836H147.989V64.8197H146.981V67.1679C146.981 67.3187 147.02 67.4358 147.097 67.519C147.18 67.6022 147.296 67.6438 147.446 67.6438C147.575 67.6438 147.697 67.6204 147.811 67.5736C147.873 67.5476 147.927 67.5242 147.974 67.5034C148.025 67.4826 148.072 67.4644 148.113 67.4488L148.354 68.4395C148.08 68.5591 147.798 68.6527 147.508 68.7204C147.338 68.7516 147.167 68.7672 146.996 68.7672C146.608 68.7672 146.301 68.6684 146.073 68.4707C145.851 68.2731 145.74 67.9792 145.74 67.5892V64.8197H145.111V63.8836Z" fill="white"/>
<path d="M148.96 66.8793V63.8836H150.201V66.6062C150.201 66.7414 150.211 66.8767 150.232 67.0119C150.258 67.1419 150.299 67.2589 150.356 67.3629C150.418 67.467 150.501 67.5528 150.604 67.6204C150.708 67.6828 150.839 67.714 151 67.714C151.284 67.714 151.533 67.6334 151.745 67.4722C151.957 67.3109 152.122 67.1055 152.241 66.8559V63.8836H153.482V67.2927C153.482 67.4175 153.503 67.5086 153.544 67.5658C153.596 67.6282 153.671 67.662 153.769 67.6672V68.6736C153.707 68.684 153.65 68.6917 153.599 68.697C153.547 68.7022 153.5 68.71 153.459 68.7204C153.418 68.7256 153.379 68.7282 153.343 68.7282C153.306 68.7334 153.27 68.736 153.234 68.736C153.053 68.736 152.885 68.6891 152.73 68.5955C152.58 68.5019 152.487 68.3589 152.45 68.1665L152.427 67.7764C152.2 68.1145 151.918 68.3641 151.582 68.5253C151.251 68.6865 150.886 68.7672 150.488 68.7672C150.198 68.7672 149.955 68.7178 149.759 68.6189C149.567 68.5201 149.412 68.3849 149.293 68.2133C149.174 68.0416 149.089 67.8414 149.037 67.6126C148.985 67.3837 148.96 67.1393 148.96 66.8793Z" fill="white"/>
<path d="M154.369 68.6736V63.8836H155.501V64.8665C155.651 64.5753 155.853 64.3257 156.106 64.1176C156.365 63.9096 156.662 63.7926 156.998 63.7666C157.029 63.7718 157.055 63.7744 157.076 63.7744C157.102 63.7744 157.125 63.7744 157.146 63.7744C157.177 63.7692 157.21 63.7744 157.247 63.79V64.9055C157.086 64.9108 156.923 64.929 156.758 64.9602C156.598 64.9862 156.442 65.033 156.292 65.1006C156.148 65.163 156.013 65.2462 155.889 65.3502C155.77 65.4542 155.672 65.5843 155.594 65.7403V68.6736H154.369Z" fill="white"/>
<path d="M160.39 63.8056C160.752 63.8056 161.086 63.868 161.391 63.9928C161.696 64.1124 161.96 64.2814 162.182 64.4999C162.404 64.7183 162.578 64.9784 162.702 65.28C162.831 65.5817 162.896 65.9119 162.896 66.2708C162.896 66.3384 162.893 66.406 162.888 66.4736C162.888 66.5412 162.883 66.6062 162.872 66.6686H159.157C159.188 67.0223 159.317 67.3109 159.545 67.5346C159.772 67.7582 160.064 67.87 160.421 67.87C160.535 67.87 160.649 67.857 160.762 67.831C160.881 67.7998 160.993 67.7582 161.096 67.7062C161.199 67.649 161.293 67.5788 161.375 67.4956C161.458 67.4123 161.523 67.3161 161.569 67.2069L162.616 67.5034C162.513 67.7218 162.381 67.9116 162.221 68.0729C162.061 68.2289 161.882 68.3589 161.686 68.4629C161.494 68.5669 161.287 68.6449 161.065 68.697C160.843 68.7438 160.615 68.7672 160.382 68.7672C160.025 68.7672 159.692 68.7074 159.382 68.5877C159.071 68.4629 158.802 68.2939 158.575 68.0807C158.352 67.8622 158.177 67.6022 158.047 67.3005C157.918 66.9989 157.853 66.6686 157.853 66.3098C157.853 65.9353 157.918 65.5947 158.047 65.2878C158.177 64.981 158.355 64.7183 158.583 64.4999C158.81 64.2763 159.076 64.1046 159.382 63.985C159.692 63.8654 160.028 63.8056 160.39 63.8056ZM161.639 65.8963C161.603 65.5427 161.471 65.2566 161.243 65.0382C161.021 64.8145 160.731 64.7027 160.375 64.7027C160.199 64.7027 160.036 64.7339 159.886 64.7963C159.741 64.8535 159.614 64.9368 159.506 65.046C159.397 65.15 159.309 65.2748 159.242 65.4204C159.18 65.5661 159.141 65.7247 159.126 65.8963H161.639Z" fill="white"/>
<path d="M166.603 68.736L168.93 63.1191H168.287V62.0269H170.738L173.531 68.736H172.189L171.684 67.519H168.457L167.953 68.736H166.603ZM168.899 66.4658H171.242L170.071 63.6417L168.899 66.4658Z" fill="white"/>
<path d="M175.243 63.8836V64.7729C175.439 64.4453 175.693 64.2034 176.003 64.0474C176.318 63.8862 176.662 63.8056 177.035 63.8056C177.371 63.8056 177.663 63.8888 177.911 64.0552C178.165 64.2164 178.328 64.4713 178.4 64.8197C178.597 64.4869 178.845 64.2346 179.145 64.063C179.445 63.8914 179.789 63.8056 180.176 63.8056C180.466 63.8056 180.704 63.8576 180.89 63.9616C181.076 64.0656 181.221 64.206 181.325 64.3829C181.433 64.5545 181.508 64.7521 181.55 64.9758C181.591 65.1994 181.612 65.4334 181.612 65.6779V68.6736H180.378V65.9977C180.378 65.8729 180.368 65.7455 180.347 65.6155C180.332 65.4802 180.295 65.3606 180.239 65.2566C180.187 65.1526 180.112 65.0668 180.014 64.9992C179.92 64.9315 179.796 64.8978 179.641 64.8978C179.502 64.8978 179.37 64.9264 179.246 64.9836C179.121 65.0356 179.01 65.1084 178.912 65.202C178.814 65.2956 178.728 65.4022 178.656 65.5219C178.584 65.6415 178.529 65.7637 178.493 65.8885V68.6736H177.252V65.9977C177.252 65.8729 177.242 65.7455 177.221 65.6155C177.205 65.4854 177.169 65.3684 177.112 65.2644C177.061 65.1552 176.986 65.0668 176.887 64.9992C176.794 64.9315 176.67 64.8978 176.515 64.8978C176.375 64.8978 176.243 64.9264 176.119 64.9836C176 65.0356 175.889 65.1084 175.786 65.202C175.687 65.2904 175.6 65.3944 175.522 65.514C175.45 65.6337 175.395 65.7559 175.359 65.8807V68.6736H174.133V63.8836H175.243Z" fill="white"/>
<path d="M183.442 61.9333V64.7417C183.623 64.4349 183.856 64.2034 184.14 64.0474C184.425 63.8862 184.746 63.8056 185.102 63.8056C185.439 63.8056 185.738 63.8784 186.002 64.024C186.266 64.1696 186.486 64.3595 186.662 64.5935C186.843 64.8275 186.98 65.0954 187.073 65.397C187.166 65.6935 187.212 65.9951 187.212 66.302C187.212 66.6296 187.155 66.9417 187.042 67.2381C186.933 67.5346 186.781 67.7972 186.584 68.026C186.388 68.2497 186.15 68.4291 185.87 68.5643C185.596 68.6996 185.291 68.7672 184.955 68.7672C184.608 68.7672 184.288 68.6891 183.993 68.5331C183.698 68.3771 183.466 68.1457 183.295 67.8388V68.6736H182.217V61.9333H183.442ZM184.606 67.714C184.808 67.714 184.991 67.6776 185.157 67.6048C185.322 67.532 185.462 67.4305 185.576 67.3005C185.695 67.1705 185.785 67.0197 185.847 66.8481C185.914 66.6764 185.948 66.4944 185.948 66.302C185.948 66.1199 185.919 65.9431 185.863 65.7715C185.806 65.5947 185.723 65.4386 185.614 65.3034C185.506 65.1682 185.374 65.0616 185.219 64.9836C185.064 64.9004 184.888 64.8587 184.691 64.8587C184.552 64.8587 184.417 64.8847 184.288 64.9368C184.164 64.9836 184.047 65.0512 183.939 65.1396C183.83 65.2228 183.734 65.3216 183.652 65.436C183.569 65.5452 183.499 65.6623 183.442 65.7871V66.9183C183.535 67.1523 183.688 67.3447 183.9 67.4956C184.117 67.6412 184.352 67.714 184.606 67.714Z" fill="white"/>
<path d="M187.815 63.8368H189.041V68.6736H187.815V63.8368ZM189.041 61.9333V63.1503H187.815V61.9333H189.041Z" fill="white"/>
<path d="M192.185 63.8056C192.547 63.8056 192.881 63.868 193.186 63.9928C193.491 64.1124 193.755 64.2814 193.977 64.4999C194.199 64.7183 194.373 64.9784 194.497 65.28C194.626 65.5817 194.691 65.9119 194.691 66.2708C194.691 66.3384 194.688 66.406 194.683 66.4736C194.683 66.5412 194.678 66.6062 194.667 66.6686H190.952C190.983 67.0223 191.112 67.3109 191.339 67.5346C191.567 67.7582 191.859 67.87 192.216 67.87C192.33 67.87 192.444 67.857 192.557 67.831C192.676 67.7998 192.787 67.7582 192.891 67.7062C192.994 67.649 193.087 67.5788 193.17 67.4956C193.253 67.4123 193.318 67.3161 193.364 67.2069L194.411 67.5034C194.308 67.7218 194.176 67.9116 194.016 68.0729C193.855 68.2289 193.677 68.3589 193.48 68.4629C193.289 68.5669 193.082 68.6449 192.86 68.697C192.637 68.7438 192.41 68.7672 192.177 68.7672C191.82 68.7672 191.487 68.7074 191.176 68.5877C190.866 68.4629 190.597 68.2939 190.37 68.0807C190.147 67.8622 189.971 67.6022 189.842 67.3005C189.713 66.9989 189.648 66.6686 189.648 66.3098C189.648 65.9353 189.713 65.5947 189.842 65.2878C189.971 64.981 190.15 64.7183 190.377 64.4999C190.605 64.2763 190.871 64.1046 191.176 63.985C191.487 63.8654 191.823 63.8056 192.185 63.8056ZM193.434 65.8963C193.398 65.5427 193.266 65.2566 193.038 65.0382C192.816 64.8145 192.526 64.7027 192.169 64.7027C191.994 64.7027 191.831 64.7339 191.681 64.7963C191.536 64.8535 191.409 64.9368 191.301 65.046C191.192 65.15 191.104 65.2748 191.037 65.4204C190.975 65.5661 190.936 65.7247 190.921 65.8963H193.434Z" fill="white"/>
<path d="M195.292 68.6736V63.8836H196.401V64.7729C196.608 64.4349 196.882 64.1904 197.224 64.0396C197.57 63.8836 197.935 63.8056 198.318 63.8056C198.607 63.8056 198.845 63.8576 199.031 63.9616C199.223 64.0656 199.373 64.2034 199.481 64.3751C199.59 64.5467 199.665 64.7469 199.706 64.9758C199.747 65.1994 199.768 65.4334 199.768 65.6779V68.6736H198.535V65.9977C198.535 65.8625 198.524 65.7299 198.504 65.5999C198.483 65.4698 198.444 65.3528 198.387 65.2488C198.336 65.1448 198.261 65.0616 198.162 64.9992C198.064 64.9315 197.935 64.8978 197.774 64.8978C197.635 64.8978 197.498 64.9264 197.363 64.9836C197.234 65.0356 197.113 65.1084 196.999 65.202C196.89 65.2904 196.794 65.3944 196.712 65.514C196.629 65.6285 196.564 65.7507 196.518 65.8807V68.6736H195.292Z" fill="white"/>
<path d="M200.375 66.2786C200.375 65.9041 200.44 65.5661 200.569 65.2644C200.699 64.9576 200.877 64.6975 201.105 64.4843C201.332 64.2658 201.598 64.0994 201.904 63.985C202.214 63.8654 202.547 63.8056 202.904 63.8056C203.127 63.8056 203.346 63.8316 203.564 63.8836C203.781 63.9304 203.985 64.0058 204.176 64.1098C204.368 64.2086 204.539 64.3361 204.688 64.4921C204.844 64.6481 204.97 64.8327 205.069 65.046L203.874 65.4126C203.771 65.2254 203.631 65.0876 203.455 64.9992C203.284 64.9055 203.093 64.8587 202.881 64.8587C202.684 64.8587 202.509 64.9004 202.354 64.9836C202.198 65.0616 202.066 65.1682 201.958 65.3034C201.854 65.4334 201.774 65.5843 201.717 65.7559C201.661 65.9275 201.632 66.1043 201.632 66.2864C201.632 66.4736 201.661 66.653 201.717 66.8247C201.779 66.9963 201.865 67.1497 201.973 67.2849C202.082 67.4149 202.214 67.519 202.369 67.597C202.529 67.675 202.705 67.714 202.897 67.714C202.99 67.714 203.088 67.701 203.191 67.675C203.295 67.649 203.39 67.6126 203.478 67.5658C203.571 67.5138 203.654 67.4539 203.727 67.3863C203.804 67.3135 203.864 67.2329 203.905 67.1445L205.1 67.5112C205.007 67.7244 204.88 67.909 204.72 68.065C204.564 68.2211 204.389 68.3511 204.192 68.4551C204.001 68.5591 203.794 68.6371 203.571 68.6891C203.354 68.7412 203.134 68.7672 202.912 68.7672C202.369 68.7672 201.888 68.6371 201.469 68.3771C201.055 68.1119 200.75 67.727 200.554 67.2225C200.435 66.9209 200.375 66.6062 200.375 66.2786Z" fill="white"/>
<path d="M208.238 63.8056C208.6 63.8056 208.933 63.868 209.238 63.9928C209.544 64.1124 209.807 64.2814 210.03 64.4999C210.252 64.7183 210.425 64.9784 210.549 65.28C210.679 65.5817 210.743 65.9119 210.743 66.2708C210.743 66.3384 210.741 66.406 210.736 66.4736C210.736 66.5412 210.73 66.6062 210.72 66.6686H207.004C207.035 67.0223 207.165 67.3109 207.392 67.5346C207.62 67.7582 207.912 67.87 208.269 67.87C208.383 67.87 208.496 67.857 208.61 67.831C208.729 67.7998 208.84 67.7582 208.944 67.7062C209.047 67.649 209.14 67.5788 209.223 67.4956C209.306 67.4123 209.37 67.3161 209.417 67.2069L210.464 67.5034C210.361 67.7218 210.229 67.9116 210.068 68.0729C209.908 68.2289 209.73 68.3589 209.533 68.4629C209.342 68.5669 209.135 68.6449 208.913 68.697C208.69 68.7438 208.463 68.7672 208.23 68.7672C207.873 68.7672 207.54 68.7074 207.229 68.5877C206.919 68.4629 206.65 68.2939 206.422 68.0807C206.2 67.8622 206.024 67.6022 205.895 67.3005C205.766 66.9989 205.701 66.6686 205.701 66.3098C205.701 65.9353 205.766 65.5947 205.895 65.2878C206.024 64.981 206.203 64.7183 206.43 64.4999C206.658 64.2763 206.924 64.1046 207.229 63.985C207.54 63.8654 207.876 63.8056 208.238 63.8056ZM209.487 65.8963C209.45 65.5427 209.319 65.2566 209.091 65.0382C208.869 64.8145 208.579 64.7027 208.222 64.7027C208.046 64.7027 207.883 64.7339 207.733 64.7963C207.589 64.8535 207.462 64.9368 207.353 65.046C207.245 65.15 207.157 65.2748 207.09 65.4204C207.028 65.5661 206.989 65.7247 206.973 65.8963H209.487Z" fill="white"/>
</svg>
